HIERARCHY
ROOT Hips
{
	OFFSET -0.000000 0.868582 0.011827
	CHANNELS 6 Xposition Yposition Zposition Xrotation Yrotation Zrotation
	JOINT LeftUpLeg
	{
		OFFSET 0.074879 -0.061236 0.002079
		CHANNELS 6 Xposition Yposition Zposition Xrotation Yrotation Zrotation
		JOINT LeftLeg
		{
			OFFSET -0.017675 -0.350308 -0.015221
			CHANNELS 6 Xposition Yposition Zposition Xrotation Yrotation Zrotation
			JOINT LeftFoot
			{
				OFFSET -0.010321 -0.378203 -0.016503
				CHANNELS 6 Xposition Yposition Zposition Xrotation Yrotation Zrotation
				JOINT LeftToeBase
				{
					OFFSET 0.002025 -0.052755 0.081308
					CHANNELS 6 Xposition Yposition Zposition Xrotation Yrotation Zrotation
					JOINT LeftToeBase_end
					{
						OFFSET 0.000094 0.000146 0.096940
						CHANNELS 3 Xrotation Yrotation Zrotation
						End Site
						{
							OFFSET 0.000094 0.000146 0.096940
						}
					}
				}
			}
		}
	}
	JOINT RightUpLeg
	{
		OFFSET -0.074845 -0.057343 0.002079
		CHANNELS 6 Xposition Yposition Zposition Xrotation Yrotation Zrotation
		JOINT RightLeg
		{
			OFFSET 0.018235 -0.351096 -0.015874
			CHANNELS 6 Xposition Yposition Zposition Xrotation Yrotation Zrotation
			JOINT RightFoot
			{
				OFFSET 0.010317 -0.378179 -0.017101
				CHANNELS 6 Xposition Yposition Zposition Xrotation Yrotation Zrotation
				JOINT RightToeBase
				{
					OFFSET -0.002025 -0.052879 0.081241
					CHANNELS 6 Xposition Yposition Zposition Xrotation Yrotation Zrotation
					JOINT RightToeBase_end
					{
						OFFSET 0.000012 -0.000001 0.096942
						CHANNELS 3 Xrotation Yrotation Zrotation
						End Site
						{
							OFFSET 0.000012 -0.000001 0.096942
						}
					}
				}
			}
		}
	}
	JOINT Spine
	{
		OFFSET -0.000000 0.022713 0.008181
		CHANNELS 6 Xposition Yposition Zposition Xrotation Yrotation Zrotation
		JOINT Chest
		{
			OFFSET -0.000000 0.090859 0.009554
			CHANNELS 6 Xposition Yposition Zposition Xrotation Yrotation Zrotation
			JOINT LeftShoulder
			{
				OFFSET 0.042115 0.203778 -0.040167
				CHANNELS 6 Xposition Yposition Zposition Xrotation Yrotation Zrotation
				JOINT LeftArm
				{
					OFFSET 0.055437 0.000000 -0.000000
					CHANNELS 6 Xposition Yposition Zposition Xrotation Yrotation Zrotation
					JOINT LeftForeArm
					{
						OFFSET 0.233774 -0.001235 0.000334
						CHANNELS 6 Xposition Yposition Zposition Xrotation Yrotation Zrotation
						JOINT LeftHand
						{
							OFFSET 0.162477 -0.001189 0.000358
							CHANNELS 6 Xposition Yposition Zposition Xrotation Yrotation Zrotation
							JOINT LeftHandThumb1
							{
								OFFSET 0.025104 -0.009040 0.020916
								CHANNELS 6 Xposition Yposition Zposition Xrotation Yrotation Zrotation
								JOINT LeftHandThumb2
								{
									OFFSET 0.025705 -0.011304 0.015845
									CHANNELS 6 Xposition Yposition Zposition Xrotation Yrotation Zrotation
									JOINT LeftHandThumb3
									{
										OFFSET 0.014208 -0.006058 0.008426
										CHANNELS 6 Xposition Yposition Zposition Xrotation Yrotation Zrotation
										JOINT LeftHandThumb3_end
										{
											OFFSET 0.021701 -0.008502 0.012261
											CHANNELS 3 Xrotation Yrotation Zrotation
											End Site
											{
												OFFSET 0.021701 -0.008502 0.012261
											}
										}
									}
								}
							}
							JOINT LeftHandIndex1
							{
								OFFSET 0.080439 0.009893 0.024808
								CHANNELS 6 Xposition Yposition Zposition Xrotation Yrotation Zrotation
								JOINT LeftHandIndex2
								{
									OFFSET 0.024270 0.000119 0.002684
									CHANNELS 6 Xposition Yposition Zposition Xrotation Yrotation Zrotation
									JOINT LeftHandIndex3
									{
										OFFSET 0.016099 0.000079 0.000373
										CHANNELS 6 Xposition Yposition Zposition Xrotation Yrotation Zrotation
										JOINT LeftHandIndex3_end
										{
											OFFSET 0.021229 0.002132 0.000138
											CHANNELS 3 Xrotation Yrotation Zrotation
											End Site
											{
												OFFSET 0.021229 0.002132 0.000138
											}
										}
									}
								}
							}
							JOINT LeftHandMiddle1
							{
								OFFSET 0.080382 0.010074 0.004393
								CHANNELS 6 Xposition Yposition Zposition Xrotation Yrotation Zrotation
								JOINT LeftHandMiddle2
								{
									OFFSET 0.025270 -0.002344 -0.000810
									CHANNELS 6 Xposition Yposition Zposition Xrotation Yrotation Zrotation
									JOINT LeftHandMiddle3
									{
										OFFSET 0.019313 -0.001793 -0.001178
										CHANNELS 6 Xposition Yposition Zposition Xrotation Yrotation Zrotation
										JOINT LeftHandMiddle3_end
										{
											OFFSET 0.021885 0.000328 -0.002525
											CHANNELS 3 Xrotation Yrotation Zrotation
											End Site
											{
												OFFSET 0.021885 0.000328 -0.002525
											}
										}
									}
								}
							}
							JOINT LeftHandRing1
							{
								OFFSET 0.076621 0.006166 -0.013667
								CHANNELS 6 Xposition Yposition Zposition Xrotation Yrotation Zrotation
								JOINT LeftHandRing2
								{
									OFFSET 0.022498 -0.005926 -0.004619
									CHANNELS 6 Xposition Yposition Zposition Xrotation Yrotation Zrotation
									JOINT LeftHandRing3
									{
										OFFSET 0.015218 -0.004009 -0.002483
										CHANNELS 6 Xposition Yposition Zposition Xrotation Yrotation Zrotation
										JOINT LeftHandRing3_end
										{
											OFFSET 0.024223 -0.006102 -0.004251
											CHANNELS 3 Xrotation Yrotation Zrotation
											End Site
											{
												OFFSET 0.024223 -0.006102 -0.004251
											}
										}
									}
								}
							}
							JOINT LeftHandPinky1
							{
								OFFSET 0.065852 -0.001390 -0.027662
								CHANNELS 6 Xposition Yposition Zposition Xrotation Yrotation Zrotation
								JOINT LeftHandPinky2
								{
									OFFSET 0.016314 -0.006006 -0.005028
									CHANNELS 6 Xposition Yposition Zposition Xrotation Yrotation Zrotation
									JOINT LeftHandPinky3
									{
										OFFSET 0.012272 -0.004690 -0.004579
										CHANNELS 6 Xposition Yposition Zposition Xrotation Yrotation Zrotation
										JOINT LeftHandPinky3_end
										{
											OFFSET 0.017090 -0.005763 -0.006620
											CHANNELS 3 Xrotation Yrotation Zrotation
											End Site
											{
												OFFSET 0.017090 -0.005763 -0.006620
											}
										}
									}
								}
							}
						}
					}
				}
			}
			JOINT RightShoulder
			{
				OFFSET -0.042115 0.203778 -0.040167
				CHANNELS 6 Xposition Yposition Zposition Xrotation Yrotation Zrotation
				JOINT RightArm
				{
					OFFSET -0.055438 0.000000 -0.000000
					CHANNELS 6 Xposition Yposition Zposition Xrotation Yrotation Zrotation
					JOINT RightForeArm
					{
						OFFSET -0.233776 -0.001236 0.000334
						CHANNELS 6 Xposition Yposition Zposition Xrotation Yrotation Zrotation
						JOINT RightHand
						{
							OFFSET -0.162475 -0.001188 0.000363
							CHANNELS 6 Xposition Yposition Zposition Xrotation Yrotation Zrotation
							JOINT RightHandThumb1
							{
								OFFSET -0.025104 -0.009041 0.020916
								CHANNELS 6 Xposition Yposition Zposition Xrotation Yrotation Zrotation
								JOINT RightHandThumb2
								{
									OFFSET -0.025794 -0.011217 0.015374
									CHANNELS 6 Xposition Yposition Zposition Xrotation Yrotation Zrotation
									JOINT RightHandThumb3
									{
										OFFSET -0.014296 -0.006168 0.008195
										CHANNELS 6 Xposition Yposition Zposition Xrotation Yrotation Zrotation
										JOINT RightHandThumb3_end
										{
											OFFSET -0.021616 -0.009106 0.011975
											CHANNELS 3 Xrotation Yrotation Zrotation
											End Site
											{
												OFFSET -0.021616 -0.009106 0.011975
											}
										}
									}
								}
							}
							JOINT RightHandIndex1
							{
								OFFSET -0.080438 0.009889 0.024813
								CHANNELS 6 Xposition Yposition Zposition Xrotation Yrotation Zrotation
								JOINT RightHandIndex2
								{
									OFFSET -0.024270 0.000119 0.002685
									CHANNELS 6 Xposition Yposition Zposition Xrotation Yrotation Zrotation
									JOINT RightHandIndex3
									{
										OFFSET -0.016100 0.000079 0.000374
										CHANNELS 6 Xposition Yposition Zposition Xrotation Yrotation Zrotation
										JOINT RightHandIndex3_end
										{
											OFFSET -0.021146 -0.002789 0.000532
											CHANNELS 3 Xrotation Yrotation Zrotation
											End Site
											{
												OFFSET -0.021146 -0.002789 0.000532
											}
										}
									}
								}
							}
							JOINT RightHandMiddle1
							{
								OFFSET -0.080382 0.010068 0.004399
								CHANNELS 6 Xposition Yposition Zposition Xrotation Yrotation Zrotation
								JOINT RightHandMiddle2
								{
									OFFSET -0.025270 -0.002341 -0.000809
									CHANNELS 6 Xposition Yposition Zposition Xrotation Yrotation Zrotation
									JOINT RightHandMiddle3
									{
										OFFSET -0.019315 -0.001791 -0.001177
										CHANNELS 6 Xposition Yposition Zposition Xrotation Yrotation Zrotation
										JOINT RightHandMiddle3_end
										{
											OFFSET -0.021487 -0.004668 -0.001407
											CHANNELS 3 Xrotation Yrotation Zrotation
											End Site
											{
												OFFSET -0.021487 -0.004668 -0.001407
											}
										}
									}
								}
							}
							JOINT RightHandRing1
							{
								OFFSET -0.076621 0.006158 -0.013662
								CHANNELS 6 Xposition Yposition Zposition Xrotation Yrotation Zrotation
								JOINT RightHandRing2
								{
									OFFSET -0.022499 -0.005920 -0.004618
									CHANNELS 6 Xposition Yposition Zposition Xrotation Yrotation Zrotation
									JOINT RightHandRing3
									{
										OFFSET -0.015219 -0.004005 -0.002483
										CHANNELS 6 Xposition Yposition Zposition Xrotation Yrotation Zrotation
										JOINT RightHandRing3_end
										{
											OFFSET -0.024025 -0.006961 -0.004048
											CHANNELS 3 Xrotation Yrotation Zrotation
											End Site
											{
												OFFSET -0.024025 -0.006961 -0.004048
											}
										}
									}
								}
							}
							JOINT RightHandPinky1
							{
								OFFSET -0.065853 -0.001392 -0.027657
								CHANNELS 6 Xposition Yposition Zposition Xrotation Yrotation Zrotation
								JOINT RightHandPinky2
								{
									OFFSET -0.016314 -0.006011 -0.005027
									CHANNELS 6 Xposition Yposition Zposition Xrotation Yrotation Zrotation
									JOINT RightHandPinky3
									{
										OFFSET -0.012272 -0.004690 -0.004579
										CHANNELS 6 Xposition Yposition Zposition Xrotation Yrotation Zrotation
										JOINT RightHandPinky3_end
										{
											OFFSET -0.017174 -0.005822 -0.006343
											CHANNELS 3 Xrotation Yrotation Zrotation
											End Site
											{
												OFFSET -0.017174 -0.005822 -0.006343
											}
										}
									}
								}
							}
						}
					}
				}
			}
			JOINT Neck
			{
				OFFSET -0.000000 0.239333 -0.042235
				CHANNELS 6 Xposition Yposition Zposition Xrotation Yrotation Zrotation
				JOINT Head
				{
					OFFSET -0.000000 0.078253 -0.002022
					CHANNELS 6 Xposition Yposition Zposition Xrotation Yrotation Zrotation
					JOINT Head_end
					{
						OFFSET -0.002461 0.155257 -0.021358
						CHANNELS 3 Xrotation Yrotation Zrotation
						End Site
						{
							OFFSET -0.002461 0.155257 -0.021358
						}
					}
				}
			}
		}
	}
}
MOTION
Frames: 4
Frame Time: 0.033333
-0.040375 0.838460 0.045268 2.685533 -6.728148 -1.347880 0.074879 -0.061236 0.002079 -16.791750 -1.261481 11.153407 -0.017675 -0.350308 -0.015221 38.830749 5.641826 -1.043522 -0.010321 -0.378203 -0.016503 -19.078802 9.338440 -8.432956 0.002025 -0.052755 0.081308 -2.081260 0.010131 -0.186827 0.000000 0.000000 -0.000001 -0.074845 -0.057343 0.002079 -22.486217 3.288485 1.454431 0.018235 -0.351096 -0.015874 38.703578 -3.628298 0.477309 0.010317 -0.378179 -0.017101 -17.356820 -5.570008 1.636152 -0.002025 -0.052879 0.081241 -1.370039 0.001199 0.141738 -0.000000 0.000001 0.000000 -0.000000 0.022713 0.008182 3.178100 -0.141773 1.118292 -0.000000 0.090859 0.009554 -3.675273 0.041830 1.794321 0.042115 0.203778 -0.040167 -0.013329 -0.765163 -2.042282 0.055437 0.000000 -0.000000 8.600730 -17.280462 -76.088403 0.233774 -0.001235 0.000334 -25.891106 -8.359834 -0.038537 0.162477 -0.001188 0.000358 -8.145425 -4.942030 23.430947 0.025104 -0.009040 0.020916 -26.411273 -0.968612 8.650835 0.025705 -0.011304 0.015845 -2.826106 -8.248260 -2.241909 0.014208 -0.006058 0.008426 -3.462257 -9.964180 -2.554911 -0.000005 0.000003 -0.000000 0.080439 0.009893 0.024808 -8.400855 -16.997143 18.239513 0.024270 0.000119 0.002684 -9.410079 -2.467614 6.481060 0.016099 0.000079 0.000373 -4.884516 1.655701 5.482867 -0.000000 0.000000 0.000001 0.080382 0.010074 0.004393 -3.523902 -7.117090 2.737860 0.025270 -0.002344 -0.000810 -4.146958 2.061908 7.439618 0.019313 -0.001793 -0.001178 -1.421735 1.617257 4.813104 0.000001 0.000002 -0.000003 0.076621 0.006165 -0.013667 -9.894226 -2.266459 3.739522 0.022498 -0.005926 -0.004619 -1.688329 5.211355 8.540224 0.015218 -0.004009 -0.002483 -3.766261 2.645214 8.061905 -0.000000 0.000000 -0.000002 0.065852 -0.001390 -0.027662 -11.620851 10.659696 -8.268482 0.016314 -0.006006 -0.005028 -2.147914 -0.491859 9.803791 0.012272 -0.004690 -0.004579 0.668364 1.192137 5.952048 -0.000005 -0.000002 -0.000005 -0.042115 0.203778 -0.040167 0.001494 -0.145268 1.220938 -0.055437 0.000000 -0.000000 7.945437 5.216180 72.948613 -0.233776 -0.001236 0.000334 -30.306089 12.510435 0.437448 -0.162475 -0.001188 0.000363 0.364460 3.111373 -7.312588 -0.025104 -0.009041 0.020916 -19.858160 -6.178911 -3.312707 -0.025794 -0.011216 0.015374 -1.484679 7.436483 5.130712 -0.014296 -0.006168 0.008195 -1.947680 9.150759 5.597655 -0.000003 -0.000001 -0.000002 -0.080438 0.009889 0.024813 -8.329755 22.469738 -9.205133 -0.024269 0.000119 0.002685 -9.053037 5.696831 -6.723234 -0.016100 0.000079 0.000374 -5.430672 1.055316 -15.578166 0.000001 -0.000001 0.000000 -0.080382 0.010068 0.004399 -2.873305 6.057638 -1.830567 -0.025270 -0.002341 -0.000809 -3.759602 1.307645 -7.901907 -0.019315 -0.001790 -0.001177 -1.720975 -0.168410 -15.064196 0.000004 -0.000003 0.000004 -0.076621 0.006158 -0.013662 -8.370917 -0.891085 -8.682419 -0.022499 -0.005920 -0.004618 -1.635398 -1.600056 -8.482185 -0.015219 -0.004005 -0.002482 -3.586216 0.506891 -10.131248 0.000001 0.000001 0.000001 -0.065852 -0.001392 -0.027657 -9.306402 -18.330182 -3.742850 -0.016314 -0.006011 -0.005027 -2.559878 4.097162 -9.396467 -0.012272 -0.004690 -0.004579 -0.091701 1.464286 -6.048383 -0.000003 -0.000004 0.000001 -0.000000 0.239333 -0.042235 -0.275285 11.006896 -4.016813 0.000000 0.078253 -0.002022 0.263382 11.084969 -4.032199 -0.000000 0.000000 0.000000 
-0.036802 0.839051 0.047301 2.376058 -6.512500 -1.117712 0.074879 -0.061236 0.002079 -16.262858 -1.108952 10.672197 -0.017675 -0.350308 -0.015221 38.688398 5.681530 -1.170131 -0.010321 -0.378203 -0.016503 -19.346180 9.119162 -8.135300 0.002025 -0.052755 0.081308 -2.064028 0.010007 -0.185274 0.000000 0.000000 -0.000000 -0.074845 -0.057343 0.002079 -21.957059 3.433684 0.959621 0.018235 -0.351096 -0.015874 38.657385 -3.673307 0.364086 0.010317 -0.378179 -0.017101 -17.642676 -5.880929 1.963259 -0.002025 -0.052879 0.081241 -1.245984 0.001246 0.130829 -0.000000 -0.000001 0.000000 -0.000000 0.022713 0.008181 3.202773 -0.213910 1.164138 -0.000000 0.090859 0.009554 -3.623977 -0.073365 1.889449 0.042115 0.203778 -0.040167 -0.013635 -0.772242 -2.078564 0.055437 0.000000 -0.000000 9.246889 -17.934856 -74.249224 0.233774 -0.001235 0.000334 -26.739033 -7.257915 -0.131316 0.162477 -0.001188 0.000358 -10.330631 -4.372417 23.192650 0.025104 -0.009040 0.020916 -26.411329 -0.968620 8.650893 0.025705 -0.011304 0.015845 -2.826220 -8.248606 -2.241985 0.014208 -0.006058 0.008426 -3.462337 -9.964408 -2.554971 0.000001 -0.000003 -0.000001 0.080439 0.009893 0.024808 -8.400853 -16.997112 18.239662 0.024270 0.000119 0.002684 -9.410079 -2.467613 6.481252 0.016099 0.000079 0.000373 -4.884530 1.655719 5.483039 -0.000001 0.000000 0.000001 0.080382 0.010074 0.004393 -3.523897 -7.117102 2.737441 0.025270 -0.002344 -0.000810 -4.146954 2.061928 7.439702 0.019313 -0.001793 -0.001178 -1.421731 1.617282 4.813229 0.000000 -0.000001 0.000002 0.076621 0.006165 -0.013667 -9.894353 -2.266448 3.738576 0.022498 -0.005926 -0.004619 -1.688312 5.211362 8.540367 0.015218 -0.004009 -0.002483 -3.766193 2.645226 8.062243 -0.000002 -0.000000 -0.000003 0.065852 -0.001390 -0.027662 -11.620852 10.659691 -8.268481 0.016314 -0.006006 -0.005028 -2.147812 -0.491900 9.804081 0.012273 -0.004690 -0.004579 0.668488 1.192115 5.952365 -0.000005 0.000001 -0.000003 -0.042115 0.203778 -0.040167 -0.000551 0.010434 0.947751 -0.055438 -0.000000 -0.000000 8.094220 4.973423 71.277388 -0.233775 -0.001235 0.000334 -29.806587 12.132626 0.343115 -0.162475 -0.001188 0.000362 0.551701 3.494922 -7.165988 -0.025104 -0.009041 0.020916 -19.858196 -6.178916 -3.312756 -0.025794 -0.011216 0.015374 -1.484723 7.436645 5.130803 -0.014295 -0.006168 0.008195 -1.947747 9.150948 5.597790 -0.000001 0.000001 -0.000002 -0.080438 0.009889 0.024813 -8.329717 22.469767 -9.205382 -0.024269 0.000120 0.002685 -9.053038 5.696885 -6.723418 -0.016100 0.000079 0.000374 -5.430669 1.055357 -15.578316 -0.000001 -0.000001 0.000000 -0.080382 0.010068 0.004399 -2.873278 6.057468 -1.830134 -0.025270 -0.002341 -0.000809 -3.759599 1.307662 -7.902030 -0.019315 -0.001791 -0.001177 -1.720951 -0.168380 -15.064308 -0.000002 0.000000 -0.000004 -0.076621 0.006158 -0.013662 -8.371017 -0.891419 -8.681547 -0.022499 -0.005920 -0.004618 -1.635392 -1.599981 -8.482417 -0.015219 -0.004005 -0.002483 -3.586187 0.506949 -10.131425 -0.000000 -0.000001 0.000002 -0.065853 -0.001392 -0.027657 -9.306406 -18.330182 -3.742851 -0.016314 -0.006011 -0.005027 -2.559820 4.097293 -9.396720 -0.012272 -0.004690 -0.004579 -0.091641 1.464398 -6.048638 -0.000002 0.000001 -0.000001 -0.000000 0.239333 -0.042235 -0.275284 11.006896 -4.016814 0.000000 0.078253 -0.002022 -0.323843 10.942035 -4.178338 0.000001 -0.000001 0.000000 
-0.032890 0.839898 0.050245 2.231451 -6.306656 -0.756583 0.074879 -0.061236 0.002079 -15.823400 -0.951447 10.067440 -0.017675 -0.350308 -0.015221 38.551671 5.751852 -1.317235 -0.010321 -0.378203 -0.016503 -19.805105 8.939624 -7.907582 0.002025 -0.052755 0.081308 -2.149714 0.010570 -0.192990 0.000000 0.000000 0.000000 -0.074845 -0.057343 0.002079 -21.564659 3.600752 0.348193 0.018235 -0.351096 -0.015874 38.668064 -3.722022 0.219791 0.010317 -0.378179 -0.017101 -18.082618 -6.253813 2.312028 -0.002025 -0.052879 0.081241 -1.126721 0.001271 0.120336 -0.000000 -0.000001 -0.000000 -0.000000 0.022713 0.008182 3.195665 -0.274446 1.201006 -0.000000 0.090859 0.009554 -3.637385 -0.145740 1.932470 0.042115 0.203778 -0.040167 -0.014337 -0.834653 -1.839794 0.055437 0.000000 -0.000000 9.936881 -15.870018 -71.667911 0.233774 -0.001235 0.000334 -28.994088 -6.954016 -0.237926 0.162477 -0.001188 0.000358 -11.793296 -3.617565 23.049833 0.025104 -0.009040 0.020916 -26.411478 -0.968614 8.651060 0.025705 -0.011304 0.015845 -2.826453 -8.249225 -2.242162 0.014208 -0.006058 0.008426 -3.462510 -9.964877 -2.555106 -0.000002 0.000002 0.000003 0.080439 0.009893 0.024808 -8.400854 -16.997021 18.240032 0.024270 0.000119 0.002684 -9.410119 -2.467554 6.481724 0.016099 0.000079 0.000373 -4.884528 1.655761 5.483467 -0.000004 0.000001 -0.000001 0.080382 0.010074 0.004393 -3.523891 -7.117116 2.737025 0.025270 -0.002344 -0.000810 -4.146951 2.061941 7.439796 0.019313 -0.001794 -0.001178 -1.421714 1.617373 4.813533 -0.000003 0.000004 -0.000002 0.076621 0.006165 -0.013667 -9.894482 -2.266436 3.737625 0.022498 -0.005926 -0.004619 -1.688257 5.211357 8.540631 0.015218 -0.004009 -0.002483 -3.766100 2.645239 8.062880 0.000000 0.000001 -0.000003 0.065852 -0.001390 -0.027662 -11.620855 10.659696 -8.268477 0.016314 -0.006006 -0.005028 -2.147647 -0.491952 9.804613 0.012272 -0.004690 -0.004579 0.668700 1.192090 5.952962 -0.000000 0.000000 -0.000000 -0.042115 0.203778 -0.040167 -0.002779 0.285774 0.623726 -0.055437 0.000000 -0.000000 7.948791 2.822931 68.808343 -0.233776 -0.001236 0.000334 -29.632328 12.292230 0.057927 -0.162475 -0.001188 0.000363 1.961271 3.945566 -7.178527 -0.025104 -0.009041 0.020916 -19.858316 -6.178871 -3.312871 -0.025794 -0.011216 0.015374 -1.484800 7.437024 5.131008 -0.014296 -0.006168 0.008195 -1.947865 9.151421 5.598049 -0.000004 -0.000000 -0.000000 -0.080438 0.009889 0.024813 -8.329662 22.469852 -9.206006 -0.024269 0.000119 0.002685 -9.053036 5.696970 -6.723784 -0.016100 0.000079 0.000374 -5.430658 1.055441 -15.578652 0.000002 0.000001 -0.000001 -0.080382 0.010068 0.004399 -2.873239 6.057147 -1.829322 -0.025270 -0.002341 -0.000809 -3.759585 1.307716 -7.902298 -0.019315 -0.001791 -0.001177 -1.720931 -0.168343 -15.064609 -0.000001 -0.000004 0.000003 -0.076621 0.006158 -0.013662 -8.371079 -0.891757 -8.680646 -0.022499 -0.005920 -0.004618 -1.635336 -1.599865 -8.482778 -0.015219 -0.004005 -0.002482 -3.586138 0.507106 -10.131849 -0.000000 0.000000 -0.000000 -0.065853 -0.001392 -0.027657 -9.306403 -18.330180 -3.742847 -0.016314 -0.006011 -0.005027 -2.559668 4.097578 -9.397276 -0.012272 -0.004690 -0.004579 -0.091508 1.464612 -6.049107 -0.000003 -0.000001 -0.000000 -0.000000 0.239334 -0.042235 -1.225959 10.797201 -4.142724 -0.000000 0.078253 -0.002022 -1.263905 10.715383 -4.325518 -0.000000 -0.000002 0.000000 
-0.028506 0.840904 0.053151 2.225741 -6.055134 -0.387925 0.074879 -0.061236 0.002079 -15.606627 -0.821577 9.433290 -0.017675 -0.350308 -0.015221 38.469572 5.690795 -1.465509 -0.010321 -0.378203 -0.016503 -19.950600 8.627176 -7.758813 0.002025 -0.052755 0.081308 -2.351609 0.011936 -0.211180 0.000000 0.000001 -0.000000 -0.074845 -0.057343 0.002079 -21.318064 3.765751 -0.305536 0.018235 -0.351096 -0.015874 38.676069 -3.716934 0.067332 0.010317 -0.378179 -0.017101 -18.300934 -6.577654 2.658965 -0.002025 -0.052879 0.081241 -1.013499 0.001276 0.110377 0.000000 0.000001 0.000000 -0.000000 0.022713 0.008182 3.161330 -0.323837 1.229377 -0.000000 0.090859 0.009554 -3.705666 -0.178894 1.930949 0.042115 0.203778 -0.040167 -0.013238 -0.939480 -1.101881 0.055437 0.000000 -0.000000 10.016560 -10.954729 -68.321242 0.233774 -0.001235 0.000334 -29.527239 -7.940582 -0.054056 0.162477 -0.001188 0.000358 -9.130500 -2.786722 23.082795 0.025104 -0.009040 0.020916 -26.411727 -0.968633 8.651311 0.025705 -0.011304 0.015845 -2.826565 -8.249569 -2.242233 0.014208 -0.006058 0.008426 -3.462732 -9.965503 -2.555289 0.000007 -0.000004 0.000002 0.080439 0.009893 0.024808 -8.400850 -16.996919 18.240509 0.024270 0.000119 0.002684 -9.410122 -2.467485 6.482285 0.016099 0.000079 0.000373 -4.884548 1.655821 5.484054 0.000001 -0.000000 -0.000000 0.080382 0.010074 0.004393 -3.523860 -7.117072 2.736002 0.025270 -0.002344 -0.000810 -4.146933 2.061979 7.440008 0.019313 -0.001793 -0.001178 -1.421680 1.617479 4.813971 -0.000004 0.000001 -0.000000 0.076621 0.006165 -0.013667 -9.894565 -2.266432 3.736940 0.022498 -0.005926 -0.004619 -1.688232 5.211365 8.540785 0.015218 -0.004009 -0.002483 -3.766037 2.645246 8.063219 -0.000000 0.000001 0.000001 0.065852 -0.001390 -0.027662 -11.620861 10.659700 -8.268483 0.016314 -0.006006 -0.005028 -2.147571 -0.491986 9.804910 0.012272 -0.004690 -0.004579 0.668806 1.192072 5.953290 0.000001 0.000004 -0.000003 -0.042115 0.203778 -0.040167 -0.003267 0.634475 0.194231 -0.055437 0.000000 -0.000000 7.333394 -0.343789 65.325364 -0.233776 -0.001236 0.000334 -31.163759 12.876834 0.015764 -0.162475 -0.001188 0.000363 2.461491 4.436996 -7.186639 -0.025104 -0.009041 0.020916 -19.858500 -6.178810 -3.313055 -0.025794 -0.011216 0.015374 -1.484920 7.437506 5.131260 -0.014296 -0.006168 0.008195 -1.947980 9.151986 5.598376 -0.000003 -0.000002 0.000004 -0.080438 0.009889 0.024813 -8.329586 22.469970 -9.206810 -0.024269 0.000119 0.002685 -9.053037 5.697033 -6.723982 -0.016100 0.000079 0.000374 -5.430641 1.055535 -15.578989 0.000004 -0.000002 0.000001 -0.080382 0.010068 0.004399 -2.873222 6.056976 -1.828884 -0.025270 -0.002341 -0.000809 -3.759559 1.307762 -7.902581 -0.019315 -0.001790 -0.001177 -1.720907 -0.168293 -15.065000 0.000001 -0.000004 0.000001 -0.076621 0.006158 -0.013662 -8.371158 -0.891963 -8.680009 -0.022499 -0.005920 -0.004618 -1.635317 -1.599769 -8.483014 -0.015219 -0.004005 -0.002483 -3.586077 0.507267 -10.132352 -0.000001 -0.000001 0.000003 -0.065853 -0.001392 -0.027657 -9.306396 -18.330192 -3.742858 -0.016314 -0.006011 -0.005027 -2.559537 4.097848 -9.397831 -0.012272 -0.004690 -0.004579 -0.091443 1.464724 -6.049359 -0.000006 -0.000003 0.000001 -0.000000 0.239334 -0.042235 -2.392009 10.515649 -4.259999 0.000000 0.078253 -0.002022 -2.417874 10.414208 -4.468594 -0.000000 -0.000001 0.000000 
